<?xml version="1.0" standalone="no"?>
<!DOCTYPE svg PUBLIC "-//W3C//DTD SVG 20010904//EN"
 "http://www.w3.org/TR/2001/REC-SVG-20010904/DTD/svg10.dtd">
<svg version="1.0" xmlns="http://www.w3.org/2000/svg" width="300.000000pt" height="191.000000pt" viewBox="0 0 300.000000 191.000000" preserveAspectRatio="xMidYMid meet">
<metadata>
Created by potrace 1.10, written by Peter Selinger 2001-2011
</metadata>
<g transform="translate(0.000000,191.000000) scale(0.050000,-0.050000)" fill="#000000" stroke="none">
<path d="M2093 3597 c-8 -70 -38 -146 -94 -239 -96 -159 -95 -161 73 -240 201
-95 208 -143 51 -334 -125 -151 -151 -197 -182 -307 -24 -90 -16 -149 18 -128
8 6 20 -48 26 -119 11 -133 69 -265 114 -255 13 4 18 -3 11 -14 -7 -12 0 -16
16 -10 15 6 39 -3 53 -20 19 -23 20 -31 2 -31 -13 0 -18 -8 -13 -17 6 -10 -11
-18 -39 -18 -46 0 -47 2 -14 29 19 16 24 24 11 17 -13 -6 -29 -3 -36 9 -7 11
-26 20 -43 20 -195 0 -391 434 -253 560 31 27 32 27 7 -5 -14 -20 -17 -35 -6
-35 11 0 26 -31 34 -69 21 -114 51 -104 51 17 0 90 15 138 80 262 130 247 111
295 -150 374 -143 43 -233 94 -294 166 -35 40 -35 40 -35 -3 -1 -69 87 -156
216 -214 189 -85 190 -90 27 -262 -149 -156 -184 -230 -184 -385 0 -84 32
-132 59 -88 8 13 25 -46 37 -132 13 -86 29 -177 37 -203 21 -76 -102 9 -208
144 -49 61 -24 125 36 93 51 -28 72 37 23 71 -62 44 -91 171 -78 340 13 179
-12 175 -118 -16 -265 -480 334 -1003 944 -825 469 136 665 582 387 883 -83
90 -98 155 -59 256 28 74 -12 65 -60 -14 -55 -89 -51 -123 31 -294 44 -93 69
-171 65 -208 -9 -85 -48 -88 -62 -3 -6 39 -30 94 -52 122 l-41 52 12 -102 c26
-213 -121 -345 -218 -196 -109 167 -90 278 85 504 183 237 168 311 -89 429
-177 82 -202 111 -169 196 34 89 61 263 48 306 -22 68 -44 43 -57 -64z m127
-1445 c85 -76 186 -96 239 -47 21 20 24 19 17 -5 -56 -184 -398 3 -395 216 l2
94 28 -93 c19 -60 57 -117 109 -165z m-403 -173 c8 -23 21 -41 29 -40 43 4 59
-1 46 -14 -20 -20 -112 -21 -100 -1 6 8 0 33 -12 56 -15 28 -15 40 0 40 12 0
28 -19 37 -41z m418 -7 c46 -15 63 -52 24 -52 -12 0 -16 -9 -9 -20 7 -11 -3
-20 -22 -20 -19 0 -29 6 -21 14 7 7 -6 33 -29 58 -43 46 -31 50 57 20z"></path>
<path d="M4671 2746 c-214 -247 -364 -344 -807 -527 -261 -108 -389 -215 -434
-364 -51 -172 -29 -215 38 -75 90 187 230 279 752 490 601 244 819 414 683
537 -68 62 -143 42 -232 -61z"></path>
<path d="M2951 2279 c6 -11 25 -19 41 -19 223 0 187 -196 -67 -362 -694 -453
-2085 -535 -1698 -100 43 47 43 47 1 26 -175 -91 -240 -296 -116 -368 497
-289 2502 403 2143 739 -71 67 -339 141 -304 84z"></path>
<path d="M3324 1931 c-169 -371 -1784 -808 -2199 -594 -112 58 -107 31 15 -93
575 -585 2122 -141 2214 635 13 111 4 127 -30 52z"></path>
<path d="M60 350 l0 -230 70 0 c70 0 70 0 70 90 0 90 0 90 70 90 70 0 70 0 70
-90 0 -89 1 -90 68 -90 l69 0 -1 230 0 230 -68 0 c-67 0 -68 -1 -68 -90 0 -90
0 -90 -70 -90 -70 0 -70 0 -70 90 0 90 0 90 -70 90 l-70 0 0 -230z"></path>
<path d="M603 400 c8 -217 52 -282 191 -284 164 -2 201 49 208 285 l4 169 -63
6 -63 7 0 -147 c-1 -167 -15 -202 -82 -193 -46 7 -48 15 -54 172 l-6 165 -71
0 -71 0 7 -180z"></path>
<path d="M1140 350 l0 -230 73 0 73 0 -12 110 c-14 138 0 138 95 0 62 -90 86
-110 133 -110 l58 0 0 230 0 230 -73 0 -73 0 13 -110 c17 -138 -1 -138 -96 0
-62 90 -86 110 -133 110 l-58 0 0 -230z"></path>
<path d="M1785 553 c-106 -58 -146 -238 -77 -343 97 -148 355 -123 424 41 50
120 43 129 -102 129 -117 0 -130 -4 -130 -40 0 -31 13 -40 59 -40 73 0 64 -53
-11 -72 -107 -27 -183 89 -127 193 22 42 146 56 169 19 17 -27 150 -25 150 2
0 101 -238 176 -355 111z"></path>
<path d="M2260 350 l0 -230 170 0 c168 0 170 1 170 50 0 47 -7 50 -100 50 -87
0 -100 5 -100 40 0 33 13 40 80 40 72 0 80 5 80 50 0 45 -8 50 -80 50 -68 0
-80 6 -80 42 0 39 7 41 90 29 l90 -13 0 61 0 61 -160 0 -160 0 0 -230z"></path>
<path d="M2700 350 l0 -230 70 0 c67 0 70 3 70 70 0 93 49 93 83 0 23 -63 32
-70 101 -70 88 0 88 -1 37 83 -38 63 -38 64 0 113 111 141 4 264 -230 264
l-131 0 0 -230z m215 117 c91 -24 44 -125 -60 -127 -8 0 -15 32 -15 70 0 74 4
77 75 57z"></path>
<path d="M3380 563 c0 -10 31 -111 68 -225 67 -207 68 -208 136 -214 68 -6 69
-5 103 116 39 143 61 140 95 -10 24 -108 25 -110 96 -110 l72 0 73 231 72 231
-72 -6 c-71 -6 -74 -9 -102 -121 -37 -144 -48 -144 -89 5 -48 168 -153 182
-191 25 -39 -162 -55 -167 -93 -29 -34 120 -37 124 -101 124 -37 0 -67 -8 -67
-17z"></path>
<path d="M4189 350 l-2 -230 67 0 c65 0 66 1 66 90 0 90 0 90 70 90 70 0 70 0
70 -90 0 -90 0 -90 70 -90 l70 0 0 230 0 230 -70 0 c-70 0 -70 0 -70 -90 0
-90 0 -90 -70 -90 -70 0 -70 0 -70 90 0 88 -1 90 -65 90 l-65 0 -1 -230z"></path>
<path d="M4739 576 c0 -3 -2 -107 -5 -231 l-4 -225 165 0 c163 0 165 1 165 50
0 47 -7 50 -100 50 -87 0 -100 5 -100 40 0 34 13 40 91 40 133 0 127 87 -6 96
-70 5 -85 14 -85 46 0 35 11 39 95 34 90 -6 95 -3 95 44 0 49 -5 50 -155 56
-85 3 -155 3 -156 0z"></path>
<path d="M5180 350 l0 -230 160 0 c157 0 160 1 160 50 0 47 -7 50 -100 50 -87
0 -100 5 -100 40 0 34 13 40 90 40 83 0 90 4 90 50 0 46 -7 50 -91 50 -77 0
-91 6 -85 35 5 27 27 35 97 35 82 0 89 4 95 55 l7 55 -162 0 -161 0 0 -230z"></path>
<path d="M5620 350 l0 -230 160 0 160 0 0 60 c0 59 -2 60 -99 60 l-99 0 12
170 12 170 -73 0 -73 0 0 -230z"></path>
</g>
</svg>
